<mxfile host="app.diagrams.net" modified="2022-05-09T05:39:18.100Z" agent="5.0 (Windows NT 10.0; Win64; x64) AppleWebKit/537.36 (KHTML, like Gecko) Chrome/101.0.4951.54 Safari/537.36 Edg/101.0.1210.39" etag="_165qSsHzIdtU9YkEJoT" version="18.0.2" type="github">
  <diagram id="bIvY78ZrXnlHgok6GJ14" name="Page-1">
    <mxGraphModel dx="825" dy="462" grid="1" gridSize="10" guides="1" tooltips="1" connect="1" arrows="1" fold="1" page="1" pageScale="1" pageWidth="827" pageHeight="1169" math="0" shadow="0">
      <root>
        <mxCell id="0" />
        <mxCell id="1" parent="0" />
        <mxCell id="lGh8PaGV3R4hgvd5C4fW-22" style="edgeStyle=orthogonalEdgeStyle;rounded=0;orthogonalLoop=1;jettySize=auto;html=1;exitX=0.5;exitY=1;exitDx=0;exitDy=0;entryX=0.5;entryY=0;entryDx=0;entryDy=0;" edge="1" parent="1" source="lGh8PaGV3R4hgvd5C4fW-1" target="lGh8PaGV3R4hgvd5C4fW-2">
          <mxGeometry relative="1" as="geometry" />
        </mxCell>
        <mxCell id="lGh8PaGV3R4hgvd5C4fW-24" style="edgeStyle=orthogonalEdgeStyle;rounded=0;orthogonalLoop=1;jettySize=auto;html=1;entryX=0.5;entryY=0;entryDx=0;entryDy=0;exitX=0.5;exitY=1;exitDx=0;exitDy=0;" edge="1" parent="1" source="lGh8PaGV3R4hgvd5C4fW-1" target="lGh8PaGV3R4hgvd5C4fW-4">
          <mxGeometry relative="1" as="geometry" />
        </mxCell>
        <mxCell id="lGh8PaGV3R4hgvd5C4fW-1" value="游戏框架" style="rounded=0;whiteSpace=wrap;html=1;" vertex="1" parent="1">
          <mxGeometry x="300" width="150" height="50" as="geometry" />
        </mxCell>
        <mxCell id="lGh8PaGV3R4hgvd5C4fW-25" style="edgeStyle=orthogonalEdgeStyle;rounded=0;orthogonalLoop=1;jettySize=auto;html=1;entryX=0.5;entryY=0;entryDx=0;entryDy=0;" edge="1" parent="1" source="lGh8PaGV3R4hgvd5C4fW-2" target="lGh8PaGV3R4hgvd5C4fW-5">
          <mxGeometry relative="1" as="geometry" />
        </mxCell>
        <mxCell id="lGh8PaGV3R4hgvd5C4fW-26" style="edgeStyle=orthogonalEdgeStyle;rounded=0;orthogonalLoop=1;jettySize=auto;html=1;entryX=0.5;entryY=0;entryDx=0;entryDy=0;" edge="1" parent="1" source="lGh8PaGV3R4hgvd5C4fW-2" target="lGh8PaGV3R4hgvd5C4fW-6">
          <mxGeometry relative="1" as="geometry" />
        </mxCell>
        <mxCell id="lGh8PaGV3R4hgvd5C4fW-27" style="edgeStyle=orthogonalEdgeStyle;rounded=0;orthogonalLoop=1;jettySize=auto;html=1;entryX=0.5;entryY=0;entryDx=0;entryDy=0;" edge="1" parent="1" source="lGh8PaGV3R4hgvd5C4fW-2" target="lGh8PaGV3R4hgvd5C4fW-7">
          <mxGeometry relative="1" as="geometry" />
        </mxCell>
        <mxCell id="lGh8PaGV3R4hgvd5C4fW-28" style="edgeStyle=orthogonalEdgeStyle;rounded=0;orthogonalLoop=1;jettySize=auto;html=1;entryX=0.5;entryY=0;entryDx=0;entryDy=0;" edge="1" parent="1" source="lGh8PaGV3R4hgvd5C4fW-2" target="lGh8PaGV3R4hgvd5C4fW-9">
          <mxGeometry relative="1" as="geometry" />
        </mxCell>
        <mxCell id="lGh8PaGV3R4hgvd5C4fW-29" style="edgeStyle=orthogonalEdgeStyle;rounded=0;orthogonalLoop=1;jettySize=auto;html=1;entryX=0.5;entryY=0;entryDx=0;entryDy=0;" edge="1" parent="1" source="lGh8PaGV3R4hgvd5C4fW-2" target="lGh8PaGV3R4hgvd5C4fW-10">
          <mxGeometry relative="1" as="geometry" />
        </mxCell>
        <mxCell id="lGh8PaGV3R4hgvd5C4fW-30" style="edgeStyle=orthogonalEdgeStyle;rounded=0;orthogonalLoop=1;jettySize=auto;html=1;" edge="1" parent="1" source="lGh8PaGV3R4hgvd5C4fW-2" target="lGh8PaGV3R4hgvd5C4fW-11">
          <mxGeometry relative="1" as="geometry" />
        </mxCell>
        <mxCell id="lGh8PaGV3R4hgvd5C4fW-2" value="客户端" style="rounded=0;whiteSpace=wrap;html=1;" vertex="1" parent="1">
          <mxGeometry x="80" y="90" width="210" height="40" as="geometry" />
        </mxCell>
        <mxCell id="lGh8PaGV3R4hgvd5C4fW-34" style="edgeStyle=orthogonalEdgeStyle;rounded=0;orthogonalLoop=1;jettySize=auto;html=1;entryX=0.5;entryY=0;entryDx=0;entryDy=0;" edge="1" parent="1" source="lGh8PaGV3R4hgvd5C4fW-4" target="lGh8PaGV3R4hgvd5C4fW-14">
          <mxGeometry relative="1" as="geometry" />
        </mxCell>
        <mxCell id="lGh8PaGV3R4hgvd5C4fW-35" style="edgeStyle=orthogonalEdgeStyle;rounded=0;orthogonalLoop=1;jettySize=auto;html=1;entryX=0.5;entryY=0;entryDx=0;entryDy=0;" edge="1" parent="1" source="lGh8PaGV3R4hgvd5C4fW-4" target="lGh8PaGV3R4hgvd5C4fW-15">
          <mxGeometry relative="1" as="geometry" />
        </mxCell>
        <mxCell id="lGh8PaGV3R4hgvd5C4fW-36" style="edgeStyle=orthogonalEdgeStyle;rounded=0;orthogonalLoop=1;jettySize=auto;html=1;entryX=0.5;entryY=0;entryDx=0;entryDy=0;" edge="1" parent="1" source="lGh8PaGV3R4hgvd5C4fW-4" target="lGh8PaGV3R4hgvd5C4fW-31">
          <mxGeometry relative="1" as="geometry" />
        </mxCell>
        <mxCell id="lGh8PaGV3R4hgvd5C4fW-37" style="edgeStyle=orthogonalEdgeStyle;rounded=0;orthogonalLoop=1;jettySize=auto;html=1;entryX=0.5;entryY=0;entryDx=0;entryDy=0;" edge="1" parent="1" source="lGh8PaGV3R4hgvd5C4fW-4" target="lGh8PaGV3R4hgvd5C4fW-33">
          <mxGeometry relative="1" as="geometry" />
        </mxCell>
        <mxCell id="lGh8PaGV3R4hgvd5C4fW-38" style="edgeStyle=orthogonalEdgeStyle;rounded=0;orthogonalLoop=1;jettySize=auto;html=1;" edge="1" parent="1" source="lGh8PaGV3R4hgvd5C4fW-4" target="lGh8PaGV3R4hgvd5C4fW-32">
          <mxGeometry relative="1" as="geometry" />
        </mxCell>
        <mxCell id="lGh8PaGV3R4hgvd5C4fW-4" value="服务端" style="rounded=0;whiteSpace=wrap;html=1;" vertex="1" parent="1">
          <mxGeometry x="460" y="90" width="210" height="40" as="geometry" />
        </mxCell>
        <mxCell id="lGh8PaGV3R4hgvd5C4fW-5" value="网络通信系统" style="rounded=0;whiteSpace=wrap;html=1;align=center;" vertex="1" parent="1">
          <mxGeometry x="70" y="180" width="20" height="120" as="geometry" />
        </mxCell>
        <mxCell id="lGh8PaGV3R4hgvd5C4fW-6" value="&lt;div style=&quot;&quot;&gt;游戏管理系统&lt;/div&gt;" style="rounded=0;whiteSpace=wrap;html=1;align=center;" vertex="1" parent="1">
          <mxGeometry x="110" y="180" width="20" height="120" as="geometry" />
        </mxCell>
        <mxCell id="lGh8PaGV3R4hgvd5C4fW-7" value="&lt;div style=&quot;&quot;&gt;用户交互系统&lt;/div&gt;" style="rounded=0;whiteSpace=wrap;html=1;align=center;" vertex="1" parent="1">
          <mxGeometry x="150" y="180" width="20" height="120" as="geometry" />
        </mxCell>
        <mxCell id="lGh8PaGV3R4hgvd5C4fW-9" value="&lt;div style=&quot;&quot;&gt;大厅系统&lt;/div&gt;" style="rounded=0;whiteSpace=wrap;html=1;align=center;" vertex="1" parent="1">
          <mxGeometry x="190" y="180" width="20" height="120" as="geometry" />
        </mxCell>
        <mxCell id="lGh8PaGV3R4hgvd5C4fW-10" value="&lt;div style=&quot;&quot;&gt;房间系统&lt;/div&gt;" style="rounded=0;whiteSpace=wrap;html=1;align=center;" vertex="1" parent="1">
          <mxGeometry x="230" y="180" width="20" height="120" as="geometry" />
        </mxCell>
        <mxCell id="lGh8PaGV3R4hgvd5C4fW-11" value="&lt;div style=&quot;&quot;&gt;战斗系统&lt;/div&gt;" style="rounded=0;whiteSpace=wrap;html=1;align=center;" vertex="1" parent="1">
          <mxGeometry x="270" y="180" width="20" height="120" as="geometry" />
        </mxCell>
        <mxCell id="lGh8PaGV3R4hgvd5C4fW-14" value="网络通信系统" style="rounded=0;whiteSpace=wrap;html=1;align=center;" vertex="1" parent="1">
          <mxGeometry x="460" y="180" width="20" height="120" as="geometry" />
        </mxCell>
        <mxCell id="lGh8PaGV3R4hgvd5C4fW-15" value="&lt;div style=&quot;&quot;&gt;玩家管理系统&lt;/div&gt;" style="rounded=0;whiteSpace=wrap;html=1;align=center;" vertex="1" parent="1">
          <mxGeometry x="510" y="180" width="20" height="120" as="geometry" />
        </mxCell>
        <mxCell id="lGh8PaGV3R4hgvd5C4fW-31" value="&lt;div style=&quot;&quot;&gt;房间管理系统&lt;/div&gt;" style="rounded=0;whiteSpace=wrap;html=1;align=center;" vertex="1" parent="1">
          <mxGeometry x="555" y="180" width="20" height="120" as="geometry" />
        </mxCell>
        <mxCell id="lGh8PaGV3R4hgvd5C4fW-32" value="&lt;div style=&quot;&quot;&gt;数据管理系统&lt;/div&gt;" style="rounded=0;whiteSpace=wrap;html=1;align=center;" vertex="1" parent="1">
          <mxGeometry x="650" y="180" width="20" height="120" as="geometry" />
        </mxCell>
        <mxCell id="lGh8PaGV3R4hgvd5C4fW-33" value="&lt;div style=&quot;&quot;&gt;战斗管理系统&lt;/div&gt;" style="rounded=0;whiteSpace=wrap;html=1;align=center;" vertex="1" parent="1">
          <mxGeometry x="600" y="180" width="20" height="120" as="geometry" />
        </mxCell>
      </root>
    </mxGraphModel>
  </diagram>
</mxfile>
